<!DOCTYPE svg PUBLIC "-//W3C//DTD SVG 1.1//EN" "http://www.w3.org/Graphics/SVG/1.1/DTD/svg11.dtd">

<svg version="1.1" id="Icons" xmlns="http://www.w3.org/2000/svg" xmlns:xlink="http://www.w3.org/1999/xlink" viewBox="0 0 32 32" xml:space="preserve" width="24px" height="24px" fill="#000000">
<g id="SVGRepo_bgCarrier" stroke-width="0"/>
<g id="SVGRepo_tracerCarrier" stroke-linecap="round" stroke-linejoin="round"/>
<g id="SVGRepo_iconCarrier"> <style type="text/css"> .st0{fill:none;stroke:#fffffd;stroke-width:2;stroke-linecap:round;stroke-linejoin:round;stroke-miterlimit:10;} .st1{fill:none;stroke:#fffffd;stroke-width:2;stroke-linejoin:round;stroke-miterlimit:10;} </style> <line class="st0" x1="5" y1="14" x2="3" y2="14"/> <line class="st0" x1="20.36" y1="7.64" x2="21.78" y2="6.22"/> <line class="st0" x1="14" y1="5" x2="14" y2="3"/> <line class="st0" x1="7.64" y1="7.64" x2="6.22" y2="6.22"/> <line class="st0" x1="21" y1="23" x2="19" y2="29"/> <line class="st0" x1="18" y1="21" x2="16" y2="27"/> <line class="st0" x1="25" y1="21" x2="23" y2="27"/> <path class="st0" d="M23.99,24.78C26.88,24.04,29,21.51,29,18.5c0-3.59-3.02-6.5-6.75-6.5c-3.21,0-5.89,2.16-6.58,5.06h-0.55 c-2.27,0-4.12,1.79-4.12,3.97S12.86,25,15.12,25h0.94"/> <path class="st0" d="M11.3,19.36C9.34,18.37,8,16.34,8,14c0-3.31,2.69-6,6-6c2.78,0,5.11,1.89,5.8,4.45"/> </g>
</svg>