<svg id="_0182_css" xmlns="http://www.w3.org/2000/svg" viewBox="0 0 500 500" data-imageid="css-9" imageName="CSS" class="illustrations_image" style="width: 188px;"><defs><style>.cls-1_css-9,.cls-2_css-9,.cls-3_css-9,.cls-4_css-9{fill:#fff;}.cls-5_css-9,.cls-6_css-9,.cls-7_css-9{fill:#a5a5a5;}.cls-2_css-9{opacity:.54;}.cls-8_css-9{opacity:.03;}.cls-8_css-9,.cls-9_css-9{fill:#000001;}.cls-3_css-9{opacity:.55;}.cls-10_css-9{fill:#e6e6e6;}.cls-6_css-9{opacity:.15;}.cls-4_css-9{opacity:.46;}.cls-7_css-9{opacity:.36;}.cls-11_css-9{fill:#24285b;}.cls-9_css-9{opacity:.08;}.cls-12_css-9{fill:#ffd200;}.cls-13_css-9{fill:#68e1fd;}</style></defs><ellipse id="sd_css-9" class="cls-8_css-9" cx="258.45" cy="423.91" rx="229.32" ry="25.71"/><g id="monitor_css-9"><rect class="cls-10_css-9" x="39.65" y="68.35" width="229.35" height="273.35"/><rect class="cls-11_css-9" x="231" y="68.35" width="229.35" height="273.35"/><polygon class="cls-5_css-9" points="218.21 310.47 202.23 411.98 308.8 411.98 284.3 310.47 218.21 310.47"/><rect class="cls-10_css-9" x="177.91" y="394.19" width="149.89" height="32.62"/><circle class="cls-11_css-9" cx="73.86" cy="95.62" r="7.36"/><circle class="cls-13_css-9 targetColor" cx="95.76" cy="95.62" r="7.36" style="fill: rgb(104, 225, 253);"/><circle class="cls-12_css-9" cx="116.39" cy="95.62" r="7.36"/><rect class="cls-10_css-9" x="39.65" y="288.93" width="420.7" height="52.76"/><rect class="cls-3_css-9" x="39.65" y="288.93" width="420.7" height="52.76"/><circle class="cls-5_css-9" cx="254.55" cy="315.31" r="14.37"/><rect class="cls-13_css-9 targetColor" x="313.65" y="150.42" width="68.26" height="4.98" style="fill: rgb(104, 225, 253);"/><rect class="cls-12_css-9" x="344.06" y="163.5" width="68.26" height="4.98"/><rect class="cls-13_css-9 targetColor" x="297.22" y="138.38" width="57.28" height="4.98" style="fill: rgb(104, 225, 253);"/><rect class="cls-13_css-9 targetColor" x="366.41" y="138.38" width="57.28" height="4.98" style="fill: rgb(104, 225, 253);"/><rect class="cls-12_css-9" x="313.65" y="124.5" width="51.21" height="4.98"/><rect class="cls-12_css-9" x="378.19" y="124.5" width="51.21" height="4.98"/><rect class="cls-1_css-9" x="275.96" y="150.42" width="25.67" height="4.98"/><rect class="cls-1_css-9" x="301.53" y="163.5" width="25.67" height="4.98"/><rect class="cls-1_css-9" x="259.54" y="138.38" width="25.67" height="4.98"/><rect class="cls-1_css-9" x="259.54" y="100.49" width="25.67" height="4.98"/><rect class="cls-1_css-9" x="275.96" y="112.95" width="25.67" height="4.98"/><rect class="cls-12_css-9" x="313.65" y="112.95" width="51.21" height="4.98"/><rect class="cls-12_css-9" x="378.19" y="112.95" width="51.21" height="4.98"/><rect class="cls-1_css-9" x="275.96" y="124.5" width="25.67" height="4.98"/><rect class="cls-13_css-9 targetColor" x="295.47" y="100.49" width="52.88" height="4.98" style="fill: rgb(104, 225, 253);"/><rect class="cls-13_css-9 targetColor" x="359.42" y="100.49" width="37.55" height="4.98" style="fill: rgb(104, 225, 253);"/><rect class="cls-13_css-9 targetColor" x="313.65" y="227.73" width="68.26" height="4.98" style="fill: rgb(104, 225, 253);"/><rect class="cls-12_css-9" x="344.06" y="240.82" width="68.26" height="4.98"/><rect class="cls-13_css-9 targetColor" x="297.22" y="215.69" width="57.28" height="4.98" style="fill: rgb(104, 225, 253);"/><rect class="cls-13_css-9 targetColor" x="366.41" y="215.69" width="57.28" height="4.98" style="fill: rgb(104, 225, 253);"/><rect class="cls-12_css-9" x="313.65" y="201.82" width="51.21" height="4.98"/><rect class="cls-12_css-9" x="378.19" y="201.82" width="51.21" height="4.98"/><rect class="cls-1_css-9" x="275.96" y="227.73" width="25.67" height="4.98"/><rect class="cls-1_css-9" x="301.53" y="240.82" width="25.67" height="4.98"/><rect class="cls-1_css-9" x="259.54" y="215.69" width="25.67" height="4.98"/><rect class="cls-1_css-9" x="259.54" y="177.8" width="25.67" height="4.98"/><rect class="cls-1_css-9" x="275.96" y="190.26" width="25.67" height="4.98"/><rect class="cls-12_css-9" x="313.65" y="190.26" width="51.21" height="4.98"/><rect class="cls-12_css-9" x="378.19" y="190.26" width="51.21" height="4.98"/><rect class="cls-1_css-9" x="275.96" y="201.82" width="25.67" height="4.98"/><rect class="cls-13_css-9 targetColor" x="295.47" y="177.8" width="52.88" height="4.98" style="fill: rgb(104, 225, 253);"/><rect class="cls-13_css-9 targetColor" x="359.42" y="177.8" width="37.55" height="4.98" style="fill: rgb(104, 225, 253);"/><rect class="cls-9_css-9" x="324.03" y="287.52" width="20.03" height="54.17"/><rect class="cls-5_css-9" x="73.86" y="129.48" width="128.37" height="80.88"/><rect class="cls-7_css-9" x="73.86" y="244.73" width="38.61" height="30.66"/><rect class="cls-7_css-9" x="118.74" y="244.73" width="38.61" height="30.66"/><rect class="cls-7_css-9" x="163.62" y="244.73" width="38.61" height="30.66"/><polygon class="cls-2_css-9" points="73.86 210.36 116.39 155.4 138.04 195.24 165.87 163.5 202.23 210.36 73.86 210.36"/><circle class="cls-1_css-9" cx="142.25" cy="155.4" r="9.26"/><rect class="cls-5_css-9" x="73.86" y="220.67" width="128.37" height="12.04"/></g><g id="coffee_css-9"><path class="cls-13_css-9 targetColor" d="m161.84,414.21h-46.55c-18.96,0-34.38-15.42-34.38-34.38s15.42-34.38,34.38-34.38h46.55v68.75Zm-46.55-57.49c-12.74,0-23.11,10.37-23.11,23.11s10.37,23.11,23.11,23.11h35.28v-46.23h-35.28Z" style="fill: rgb(104, 225, 253);"/><path class="cls-4_css-9" d="m161.84,414.21h-46.55c-18.96,0-34.38-15.42-34.38-34.38s15.42-34.38,34.38-34.38h46.55v68.75Zm-46.55-57.49c-12.74,0-23.11,10.37-23.11,23.11s10.37,23.11,23.11,23.11h35.28v-46.23h-35.28Z"/><rect class="cls-13_css-9 targetColor" x="121.37" y="327.77" width="82.11" height="100.01" style="fill: rgb(104, 225, 253);"/><ellipse class="cls-9_css-9" cx="162.43" cy="377.78" rx="23.81" ry="26.89"/><path class="cls-6_css-9" d="m196.79,327.77s14.06-18.4,0-32.37c-14.06-13.97-42.82-5.98-42.82-35.54s-.64-62.9-35.79-72.75c-35.15-9.85-60.71-31.13-90.11,5.39s-6.39,72.43,27.48,60.55c33.87-11.88,47.29-4.72,33.87,13.25-13.42,17.98,15.34,40.05,31.95,32.24,12.3-5.79,8.31,29.24,8.31,29.24h67.11Z"/></g><g id="css_css-9"><rect class="cls-5_css-9" x="339.25" y="275.31" width="130.99" height="85.41"/><circle class="cls-11_css-9" cx="353.42" cy="287.52" r="4.46"/><circle class="cls-13_css-9 targetColor" cx="366.7" cy="287.52" r="4.46" style="fill: rgb(104, 225, 253);"/><rect class="cls-10_css-9" x="339.25" y="302" width="130.99" height="64.25"/><circle class="cls-12_css-9" cx="379.22" cy="287.52" r="4.46"/><path class="cls-5_css-9" d="m373.92,330.76l-9.23,3.38,9.23,3.36v3.47l-13.2-5.02v-3.6l13.2-5.02v3.44Z"/><path class="cls-5_css-9" d="m376.7,334.14c0-5.85,4.49-10.04,10.54-10.04,3.36,0,6.16,1.22,7.99,3.44l-2.88,2.66c-1.3-1.5-2.94-2.27-4.88-2.27-3.63,0-6.21,2.55-6.21,6.21s2.58,6.21,6.21,6.21c1.94,0,3.58-.78,4.88-2.3l2.88,2.66c-1.83,2.25-4.63,3.47-8.01,3.47-6.02,0-10.51-4.19-10.51-10.04Z"/><path class="cls-5_css-9" d="m396.55,341.94l1.52-3.38c1.64,1.19,4.08,2.02,6.41,2.02,2.66,0,3.74-.89,3.74-2.08,0-3.63-11.29-1.14-11.29-8.35,0-3.3,2.66-6.04,8.18-6.04,2.44,0,4.94.58,6.74,1.72l-1.39,3.41c-1.8-1.03-3.66-1.53-5.38-1.53-2.66,0-3.69,1-3.69,2.22,0,3.58,11.29,1.11,11.29,8.24,0,3.24-2.69,6.02-8.24,6.02-3.08,0-6.18-.91-7.9-2.25Z"/><path class="cls-5_css-9" d="m414.24,341.94l1.52-3.38c1.64,1.19,4.08,2.02,6.41,2.02,2.66,0,3.74-.89,3.74-2.08,0-3.63-11.29-1.14-11.29-8.35,0-3.3,2.66-6.04,8.18-6.04,2.44,0,4.94.58,6.74,1.72l-1.39,3.41c-1.8-1.03-3.66-1.53-5.38-1.53-2.66,0-3.69,1-3.69,2.22,0,3.58,11.29,1.11,11.29,8.24,0,3.24-2.69,6.02-8.24,6.02-3.08,0-6.18-.91-7.9-2.25Z"/><path class="cls-5_css-9" d="m446.07,332.34v3.6l-13.2,5.02v-3.47l9.23-3.36-9.23-3.38v-3.44l13.2,5.02Z"/></g></svg>