<svg xmlns="http://www.w3.org/2000/svg" xmlns:xlink="http://www.w3.org/1999/xlink" viewBox="0,0,256,256" width="96px" height="96px" fill-rule="nonzero"><g fill="#fcfcfc" fill-rule="nonzero" stroke="none" stroke-width="1" stroke-linecap="butt" stroke-linejoin="miter" stroke-miterlimit="10" stroke-dasharray="" stroke-dashoffset="0" font-family="none" font-weight="none" font-size="none" text-anchor="none" style="mix-blend-mode: normal"><g transform="scale(5.33333,5.33333)"><path d="M41.25,22.75c-1,0 -1.75,0 -2.625,0c-0.25,0 -0.625,0.875 -0.25,0.875c0.459,0 0.72,-0.005 1.5,0c0.095,0.001 0.5,0 0.5,0.5c0,0.285 -0.125,0.625 -0.75,0.625c-0.375,0 -0.625,0 -1.75,0c-0.375,0 -0.625,1 -0.625,1.375c0,0.25 0.125,0.25 0.25,0.25c0.258,0 2.127,-0.666 2.5,-0.625c0.297,0.033 0.5,0.274 0.5,0.625c0,0.625 -2.096,1.621 -3.375,1.621c-0.5,0 -1.375,-0.353 -1.375,-1.371c0,-0.75 0.5,-1.75 0.5,-2c0,-0.25 -0.125,-0.25 -0.125,-0.5c0,-0.25 0.125,-0.5 0.625,-0.5c0.125,0 0.25,-0.375 0.375,-1c0.049,-0.247 -0.25,-0.125 -0.75,-0.375c-0.45,-0.225 -0.371,-0.657 -0.125,-0.769c0.268,-0.121 2.877,-0.179 4.311,-0.257c0.355,-0.019 0.751,-0.013 1.064,1.026c0.079,0.263 -0.125,0.5 -0.375,0.5z"></path><path d="M33.625,27.875c-0.81,0 -1.375,-1.375 -1.875,-2.75c-0.325,-0.895 -0.375,-1.125 -0.5,-1.125c-0.125,0 -0.25,0.5 -0.25,1.375c0,2.375 -0.375,2.625 -0.75,2.625c-0.5,0 -0.625,-0.896 -0.625,-1.5c0,-3.25 1,-4.75 1.375,-4.75c0.183,0 0.425,0.084 0.625,0.375c1.375,2 1.75,3.875 2,3.875c0.125,0 0.25,-0.375 0.25,-0.875c0,-2.25 -0.5,-3.125 -0.75,-4.25c-0.06,-0.271 0.144,-0.409 0.375,-0.25c0.599,0.412 1.75,1.625 1.75,4c0,2.375 -0.863,3.25 -1.625,3.25z"></path><path d="M29,22.25c0,0.375 -0.25,0.625 -0.75,0.625c-0.75,0 -1.375,-0.25 -2.5,-0.25c-2,0 -2,0.25 -2,0.5c0,0.376 2,0.25 3.25,0.5c1.25,0.25 2.125,0.625 2.125,2c-0.014,0.898 -0.5,2.375 -3.125,2.375c-1.875,0 -3.375,-0.875 -3.375,-2c0,-0.389 0.125,-1.25 1.625,-1.25c1.125,0 3,0.5 3,0.875c0,0.375 -0.473,0.625 -1.25,0.625c-1,0 -1.625,-0.75 -2.375,-0.75c-0.25,0 -0.375,0.125 -0.375,0.375c0,0.75 1.875,1 2.75,1c0.801,0 2,-0.25 2,-1.125c0,-0.5 -0.375,-1 -2.5,-1.25c-0.517,-0.061 -2.875,0 -2.875,-1.375c0,-1.125 1.02,-1.875 3.375,-1.875c2.355,0 3,0.5 3,1z"></path><path d="M21.25,28c-0.264,0 -0.524,-0.115 -0.633,-0.266c-0.189,-0.235 -0.261,-0.35 -0.242,-2.359c0.047,-1.49 0.125,-3.875 0.75,-3.875c0.5,0 0.875,0.625 0.875,4.25c0,2.25 -0.125,2.25 -0.75,2.25z"></path><path d="M24.125,15.875c0,0 -0.125,-0.871 -1.538,-0.871c-2.587,0 -3.587,1.996 -3.587,2.621c0,1 0.375,1.25 0.5,1.5c0.125,0.25 0,0.5 0,0.75c0,0.25 0.125,0.375 0.375,0.375c0.25,0 0.281,-0.219 0.375,-0.375c0.094,-0.156 0.25,-0.25 0.25,-0.25c0,0 0.25,0.375 1.75,0.375c1.802,0 3.75,-1.575 3.75,-2.75c0,-1.625 -1.867,-1.369 -1.875,-1.375zM20,18.375c-0.125,-0.25 0.125,-2 2.125,-2.125c-0.625,0.375 -1.375,0.875 -2.125,2.125zM20.951,18.84c0.674,-1.465 2.172,-2.26 2.85,-2.26c0.573,0 0.823,0.295 0.823,0.67c0.001,0.75 -1.749,2.125 -3.673,1.59z"></path><path d="M46.75,21.75c-1.375,0 -3.125,2.25 -3.875,4.125c-0.5,-0.75 -0.125,-1.75 0.25,-2.375c0.295,-0.492 1.125,-1.375 1.125,-2c0,-0.125 0,-0.375 -0.25,-0.375c-0.25,0 -0.474,0.148 -0.81,0.5c-1.315,1.375 -2.065,2.694 -2.065,3.75c0,1.5 0.625,1.875 1.125,2.125c-0.5,1.25 -1,3.625 -1,5.25c0,0.5 0.5,1.25 1.375,1.25c0.411,0 0.5,-0.125 0.5,-0.625c0,-3.125 0.75,-5.375 0.75,-5.375c1.125,0 4.125,-1.009 4.125,-4.5c0,-1.345 -0.625,-1.75 -1.25,-1.75zM46.051,25.681c-0.232,0.213 -0.926,0.694 -1.551,0.819c0.25,-0.875 1,-2.125 1.75,-3c0.46,-0.537 0.631,-0.5 0.75,-0.5c0.204,0 0.254,0.25 0.254,0.375c0,1.125 -0.84,1.973 -1.203,2.306z"></path><path d="M4.25,14c-2.875,0 -4.25,0.604 -4.25,1.375c0,0.37 0.25,1 1.25,1c0,0 0.5,0 0.5,-0.375c0,-0.25 -0.277,-0.25 -0.5,-0.25c-0.25,0 -0.25,-0.125 -0.25,-0.125c0,-0.25 0.5,-0.5 3.25,-0.5c6.125,0 13.125,5.391 13.125,9c0,3.25 -3.774,3.5 -5.25,3.5c-1.5,0 -2.75,-0.25 -2.75,-0.25c0,0 0,-3.157 0,-4.375c3,0 4.466,0.425 4.466,1.025c0,0.6 -0.841,0.35 -0.841,0.6c0,0.25 0.528,0.403 0.875,0.375c0.347,-0.028 1.125,-0.147 1.125,-1.125c0,-1 -0.75,-2.5 -5.625,-2.5c0,0 0,-1.5 0,-1.75c0,-0.25 -0.125,-1.625 -0.875,-1.625c-0.75,0 -0.875,1.287 -0.875,1.625c0,0.875 -0.011,1.75 -0.011,1.75c-1.739,0.125 -4.614,0.75 -4.614,2.625c0,1.75 2.625,3.125 4.625,4.125c0,0.625 0,0.625 0,1c0,0.375 0.25,0.875 0.875,0.875c0.75,0 0.875,-0.625 0.875,-1.375c0,0 1.25,0.375 2.875,0.375c5.625,0 7.25,-2.875 7.25,-5c0,-4.75 -6.875,-10 -15.25,-10zM7.625,26.75c0,0 -3.875,-1.625 -3.875,-2.75c0,-1 3,-1 3.875,-1z"></path></g></g></svg>