<svg xmlns="http://www.w3.org/2000/svg" xmlns:xlink="http://www.w3.org/1999/xlink" viewBox="0,0,256,256" width="100px" height="100px" fill-rule="nonzero"><g fill="#f50000" fill-rule="nonzero" stroke="none" stroke-width="1" stroke-linecap="butt" stroke-linejoin="miter" stroke-miterlimit="10" stroke-dasharray="" stroke-dashoffset="0" font-family="none" font-weight="none" font-size="none" text-anchor="none" style="mix-blend-mode: normal"><g transform="scale(5.12,5.12)"><path d="M4.75,19c0.6875,0 1.42188,0 2.10547,0c-0.00781,4.18359 -0.01562,8.37109 -0.01953,12.55469c-0.73828,0.07813 -1.54687,0.17969 -2.27734,0.26172c-0.9375,-2.62109 -1.51563,-4.25 -2.45703,-7.01172c0,2.80469 -0.00391,4.53125 -0.00391,7.33594c-0.68359,0.08594 -1.41406,0.17969 -2.09766,0.27734c0,-4.47266 0,-8.94531 0,-13.41797c0.76953,0 1.25,0 2.01953,0c0.91016,2.9375 1.81641,4.78516 2.71875,7.57813c0.00391,-2.86328 0.00781,-4.71484 0.01172,-7.57812zM14.73047,21.07422c0,-0.60547 -0.01172,-1.47266 -0.01172,-2.07422c-1.95312,0 -3.87891,0 -5.83203,0c-0.00781,4.125 -0.01562,8.25391 -0.02344,12.37891c1.94922,-0.17578 3.90234,-0.32031 5.85547,-0.43359c0.00391,-0.60547 0.00391,-1.47266 0.00391,-2.07422c-1.26953,0.07813 -2.48437,0.15625 -3.75391,0.24219c0.00391,-1.10547 0.00391,-2.02344 0.00781,-3.13281c0.92578,-0.01562 1.90234,-0.00391 2.84766,-0.01953c0,-0.60547 0.00391,-1.47656 0.00391,-2.08203c-0.9375,0.01563 -1.92578,0.01953 -2.84766,0.03516c0,-1.10937 0.00391,-1.71875 0.00781,-2.82812c0.57813,-0.00781 3.25781,-0.00781 3.74219,-0.01172zM16.08203,21.07031c0.09375,0 2.11719,0.01172 2.1875,0.01172c-0.00391,3.32813 -0.00781,6.36328 -0.01172,9.69141c0.6875,-0.02734 1.42188,-0.04687 2.10938,-0.0625c0,-3.30859 0.00391,-6.32812 0.00781,-9.63672c0.72656,-0.00391 1.47656,-0.00781 2.19922,-0.00781c0,-0.58984 0.00391,-1.46484 0.00391,-2.05469c-2.14062,0 -4.35547,0 -6.49219,0c0,0.59766 -0.00391,1.46094 -0.00391,2.05859zM29.80078,19c-1.95312,0 -3.90625,0 -5.85547,0c-0.00391,3.88281 -0.00391,7.76953 -0.00391,11.65234c0.22656,0 0.45703,0 0.6875,0c0.46484,0 0.9375,0 1.39844,0.00391c0,-1.64844 0,-3.15234 0,-4.80078c0.11328,0 2.57422,-0.00391 2.85156,0c0,-0.58984 0,-1.46875 -0.00391,-2.05859c-0.26172,-0.00391 -2.74219,0 -2.84766,0c0,-1.0625 -0.00391,-1.66016 -0.00391,-2.71875c0.23047,0 3.20703,0 3.77734,0.00391c0,-0.59375 0,-1.48828 0,-2.08203zM33.26172,28.77344c-0.00391,-3.35937 0.01563,-6.40625 0.00781,-9.76562c-0.68359,0 -1.41797,0 -2.10547,0c0.00781,3.92188 -0.01172,7.84375 -0.00781,11.76563c1.87109,0.07031 3.83984,0.14453 5.71094,0.27734c-0.00391,-0.60547 -0.00391,-1.47266 -0.00391,-2.07422c-1.18359,-0.07031 -2.41797,-0.15625 -3.60156,-0.20312zM38.61719,31.17578c0.6875,0.05469 1.39453,0.10938 2.08203,0.17188c0,-4.10937 0.00781,-8.22656 0,-12.33594c-0.6875,0 -1.42187,0 -2.10547,0c0.00781,4.05469 0.01563,8.10938 0.02344,12.16406zM47.24609,25.32813c0.89063,-2.10547 1.79688,-4.11328 2.72266,-6.31641c-0.75781,0 -1.53906,0 -2.30078,0c-0.57031,1.35938 -0.96094,2.23438 -1.50781,3.53125c-0.50781,-1.34766 -0.84766,-2.22266 -1.35937,-3.53125c-0.75781,0 -1.53906,0 -2.29687,0c0.83984,2.05078 1.60938,4.10547 2.46484,6.28516c-0.88672,2.08984 -1.79297,4.16797 -2.67969,6.17578c0.73438,0.07031 1.49609,0.17578 2.23047,0.25781c0.52734,-1.28906 1.00391,-2.28516 1.53516,-3.61328c0.52344,1.41406 1.00391,2.50781 1.53125,3.96484c0.73047,0.09766 1.68359,0.23438 2.41406,0.33594c-0.88672,-2.37109 -1.85937,-4.84375 -2.75391,-7.08984z"></path></g></g></svg>