<svg xmlns="http://www.w3.org/2000/svg" xmlns:xlink="http://www.w3.org/1999/xlink" viewBox="0,0,256,256" width="96px" height="96px" fill-rule="evenodd"><g fill="#fcfcfc" fill-rule="evenodd" stroke="none" stroke-width="1" stroke-linecap="butt" stroke-linejoin="miter" stroke-miterlimit="10" stroke-dasharray="" stroke-dashoffset="0" font-family="none" font-weight="none" font-size="none" text-anchor="none" style="mix-blend-mode: normal"><g transform="scale(5.33333,5.33333)"><path d="M21.4,26.7c-0.7,-0.8 -1.3,-1.6 -1.7,-2c-0.5,0.6 -1.7,2.5 -2.2,3.5c0.3,0.1 0.7,0.1 1,0.1l0.1,0.7h-0.2c-0.2,0 -1.4,-0.1 -2.1,-0.1c-0.6,0 -1.2,0 -1.7,0.1l0.2,-0.7c0.3,0 0.6,-0.1 0.9,-0.2c0.6,-0.4 2.9,-3.4 3.5,-4.2c-0.5,-0.6 -1.1,-1.4 -1.7,-2.2c-0.6,-0.8 -1.2,-1.5 -1.5,-1.8c-0.3,-0.1 -0.6,-0.1 -0.9,-0.2l-0.2,-0.7c0.7,0.1 1.6,0.1 2.3,0.1c0.8,0 1.7,0 2.5,-0.1l-0.2,0.7c-0.3,0 -0.7,0.1 -1,0.1c0.4,0.6 1.4,2 1.8,2.6c0.5,-0.6 1.4,-1.9 1.8,-2.6h-0.2c-0.2,0 -0.4,-0.1 -0.6,-0.1l-0.1,-0.7c0.7,0.1 1.4,0.1 2.1,0.1c0.5,0 1.1,0 1.6,-0.1l-0.1,0.7c-0.3,0.1 -0.6,0.1 -1,0.2v0.1c-0.5,0.4 -0.9,0.9 -1.3,1.4c-0.6,0.7 -1.3,1.4 -1.5,1.8c1.5,2 2.9,4.1 4.5,6.1l-1.1,0.2c-1.2,-0.8 -2.1,-1.8 -3,-2.8zM39,23v0.8c0,1.3 0,3.6 -0.1,4.3c-0.5,0.1 -0.9,0.1 -1.4,0.2l-0.1,0.7c0.9,-0.1 1.8,-0.1 2.6,-0.1c0.8,0 1.7,0 2.6,0.1l-0.1,-0.7c-0.5,0 -0.9,-0.1 -1.4,-0.2c0,-0.8 -0.1,-2.6 -0.1,-3.4v-0.2c0.3,0 0.6,0 1,-0.1c0.9,1 3.7,4.3 4.7,4.7l1.2,-0.2c-1.2,-1.3 -2.9,-3.7 -3.9,-5.3c1,-0.6 2,-1.7 2,-2.6c0,-0.8 -0.5,-1.4 -1.3,-1.7c-1,-0.4 -2.7,-0.4 -4,-0.4h-3.3l0.1,0.7c0.5,0 1,0.1 1.4,0.1c0.1,0.8 0.1,2.9 0.1,3.3zM41,23.8v-0.2c0,-0.9 0,-2.9 0.1,-3.7c2.1,0.1 2.7,1 2.7,1.7c0,1.2 -0.9,1.8 -1.4,2c-0.5,0.1 -1,0.2 -1.4,0.2zM32.2,28.3l-0.2,0.7c0.8,-0.1 1.7,-0.1 2.5,-0.1c0.8,0 1.8,0 2.6,0.1l-0.1,-0.7c-0.4,-0.1 -0.8,-0.1 -1.2,-0.2c-0.6,-1.2 -1.4,-3.4 -1.8,-4.4c-0.5,-1.3 -1.1,-3.1 -1.4,-3.9c0.3,-0.1 0.6,-0.1 0.9,-0.1l0.1,-0.7c-0.9,0.1 -1.8,0.1 -2.7,0.1c-0.7,0 -1.4,0 -2.1,-0.1v0.7c0.3,0 0.7,0.1 1,0.1c-0.5,1.3 -2.7,7.2 -3.2,8.3c-0.4,0.1 -0.8,0.1 -1.2,0.2l0.1,0.7c0.6,-0.1 1.2,-0.1 1.8,-0.1c0.8,0 1.6,0 2.4,0.1l-0.1,-0.7c-0.4,0 -0.7,-0.1 -1.1,-0.2c0.2,-1 0.7,-2.9 0.9,-3.4c0.6,-0.1 2.2,-0.1 2.8,-0.2c0.5,1.2 0.9,2.4 1.3,3.6c-0.5,0.1 -0.9,0.2 -1.3,0.2zM31.9,23.7h-2.3c0.2,-0.6 0.8,-2.1 1.2,-3.2c0.3,0.9 0.8,2.4 1.1,3.2zM12.1,24v-0.8c0,-1.5 0,-2.8 0,-3.3c0.5,-0.1 0.9,-0.1 1.4,-0.2l0.2,-0.7c-0.8,0.1 -1.6,0.1 -2.3,0.1c-0.9,0 -2,0 -2.9,-0.1l0.2,0.7c0.5,0 0.9,0.1 1.4,0.2c0,0.7 0.1,2.8 0.1,3.2v0.8c0,1.2 0,3.4 -0.1,4.2c-0.5,0.1 -0.9,0.1 -1.4,0.2l-0.3,0.7c0.8,0 1.6,-0.1 2.3,-0.1c0.9,0 2,0 2.9,0.1l-0.2,-0.7c-0.5,0 -0.9,-0.1 -1.4,-0.2c0.1,-0.5 0.1,-2.5 0.1,-4.1zM4,23.7v-0.6c0,-1 0,-2.6 0,-3.3c0.5,0 1.1,0.1 1.5,0.3c0.6,0.3 1,0.9 1,1.7c0,1.5 -0.9,2.2 -2.1,2.5v0.7c2,-0.3 4.3,-1.3 4.3,-3.7c0,-0.4 -0.2,-1.3 -1.4,-1.8c-0.7,-0.3 -2,-0.4 -3.4,-0.4h-3.3l0.1,0.7c0.5,0 1,0.1 1.4,0.2c-0.1,0.5 -0.1,2.7 -0.1,3v0.5c0,1.2 0,3.7 -0.1,4.5c-0.5,0.1 -0.9,0.1 -1.4,0.2l-0.1,0.8c0.9,-0.1 1.8,-0.1 2.7,-0.1c0.9,0 1.9,0 2.8,0.1l-0.2,-0.7c-0.6,-0.1 -1.1,-0.1 -1.7,-0.2c0,-0.7 0,-3.4 0,-4.4z"></path></g></g></svg>