<svg xmlns="http://www.w3.org/2000/svg" xmlns:xlink="http://www.w3.org/1999/xlink" viewBox="0,0,256,256" width="96px" height="96px" fill-rule="nonzero"><g fill="#fcfcfc" fill-rule="nonzero" stroke="none" stroke-width="1" stroke-linecap="butt" stroke-linejoin="miter" stroke-miterlimit="10" stroke-dasharray="" stroke-dashoffset="0" font-family="none" font-weight="none" font-size="none" text-anchor="none" style="mix-blend-mode: normal"><g transform="scale(10.66667,10.66667)"><path d="M4.1875,6c-0.67969,0 -1.21875,0.56641 -1.21875,1.34375c0,0.33203 0.10156,0.41797 0.15625,0.53125c0.15625,0.22266 1.09375,1.46875 1.09375,1.46875c0,0.05469 0.0625,0.10156 0.0625,0.15625c0.05078,0.22266 -0.10156,0.375 -0.3125,0.375h-3.96875v1.125h4.59375c0.67969,0 1.25,-0.56641 1.25,-1.34375c0,-0.33203 -0.10156,-0.41797 -0.15625,-0.53125l-1,-1.46875c0,-0.05469 -0.03125,-0.10156 -0.03125,-0.15625c0,-0.22266 0.13672,-0.375 0.34375,-0.375h2.71875v3.875h1.375v-3.875h2.21875v-1.125zM12.6875,6l-1.53125,5h1.3125l0.375,-1.125h1.96875l0.375,1.125h1.3125l-1.625,-5zM17.59375,6v5h1.40625v-1.875c0,0 1.19531,1.21875 1.71875,1.71875c0.05078,0.05469 0.19922,0.15625 0.40625,0.15625h2.875v-1.125h-1.9375c-0.21094,0 -0.30078,-0.10937 -0.40625,-0.21875c-0.26172,-0.33203 -0.5625,-0.59375 -0.5625,-0.59375c0.625,-0.16797 1.09375,-0.77734 1.09375,-1.5c0,-0.89062 -0.6875,-1.5625 -1.46875,-1.5625zM13.78125,6.78125l0.625,2h-1.25zM19,7.125h1.34375c0.3125,0 0.59375,0.19531 0.59375,0.53125c0,0.33203 -0.28125,0.5625 -0.59375,0.5625h-1.34375zM13.46875,13v4.9375h1.4375v-1.875c0,0 1.19141,1.22656 1.71875,1.71875c0.05469,0.05469 0.22656,0.15625 0.4375,0.15625h4.375c0.68359,0 1.25,-0.48828 1.25,-1.3125c0,-0.32812 -0.10156,-0.45312 -0.15625,-0.5625l-1.0625,-1.34375c0,-0.05469 -0.0625,-0.13281 -0.0625,-0.1875c0,-0.21875 0.1875,-0.375 0.34375,-0.375h2.25v-1.09375h-3c-0.68359,0 -1.25,0.54297 -1.25,1.3125c0,0.32813 0.10156,0.45313 0.15625,0.5625c0.15625,0.16406 1.15625,1.375 1.15625,1.375c0,0.05469 0.03125,0.10156 0.03125,0.15625c0,0.21875 -0.15625,0.375 -0.3125,0.375h-2.78125c-0.21094,0 -0.30078,-0.10937 -0.40625,-0.21875c-0.26172,-0.32812 -0.53125,-0.59375 -0.53125,-0.59375c0.63281,-0.16406 1.09375,-0.78516 1.09375,-1.5c0,-0.87891 -0.67969,-1.53125 -1.46875,-1.53125zM0,13.0625l1.59375,4.9375h0.875l1,-3.03125l1,3.03125h0.90625l1.5625,-4.9375h-1.34375l-0.6875,2.125l-0.6875,-2.125h-1.46875l-0.75,2.125l-0.6875,-2.125zM8.46875,13.0625l-1.53125,4.9375h1.28125l0.34375,-1.09375h2l0.375,1.09375h1.3125l-1.5625,-4.9375zM9.59375,13.8125l0.625,2h-1.28125zM14.90625,14.15625h1.34375c0.31641,0 0.59375,0.20313 0.59375,0.53125c0,0.32813 -0.27734,0.5625 -0.59375,0.5625h-1.34375z"></path></g></g></svg>