<!DOCTYPE svg PUBLIC "-//W3C//DTD SVG 1.1//EN" "http://www.w3.org/Graphics/SVG/1.1/DTD/svg11.dtd">
<!-- Uploaded to: SVG Repo, www.svgrepo.com, Transformed by: SVG Repo Mixer Tools -->
<svg height="20px" width="20px" version="1.1" id="_x32_" xmlns="http://www.w3.org/2000/svg" xmlns:xlink="http://www.w3.org/1999/xlink" viewBox="-40.96 -40.96 593.92 593.92" xml:space="preserve" fill="#7e8492" stroke="#7e8492" stroke-width="14.336000000000002">
<g id="SVGRepo_bgCarrier" stroke-width="0"/>
<g id="SVGRepo_tracerCarrier" stroke-linecap="round" stroke-linejoin="round"/>
<g id="SVGRepo_iconCarrier"> <style type="text/css"> .st0{fill:#7e8492;} </style> <g> <path class="st0" d="M255.996,127.577c-70.925,0-128.42,57.495-128.42,128.42c0,70.933,57.496,128.428,128.42,128.428 s128.428-57.495,128.428-128.428C384.424,185.072,326.921,127.577,255.996,127.577z"/> <path class="st0" d="M512,255.996c-78.109-49.042-98.052-93.51-75.065-180.932c-87.414,22.995-131.89,3.036-180.939-75.057 c-49.042,78.093-93.51,98.052-180.932,75.057C98.06,162.487,78.109,206.954,0,255.996c78.109,49.049,98.06,93.525,75.065,180.939 c87.422-22.987,131.89-3.036,180.932,75.057c49.049-78.093,93.525-98.044,180.939-75.057 C413.948,349.522,433.891,305.046,512,255.996z M255.996,423.766c-92.666,0-167.762-75.112-167.762-167.77 c0-92.65,75.096-167.762,167.762-167.762c92.65,0,167.769,75.112,167.769,167.762C423.766,348.654,348.646,423.766,255.996,423.766 z"/> </g> </g>
</svg>