<!DOCTYPE svg PUBLIC "-//W3C//DTD SVG 1.1//EN" "http://www.w3.org/Graphics/SVG/1.1/DTD/svg11.dtd">
<!-- Uploaded to: SVG Repo, www.svgrepo.com, Transformed by: SVG Repo Mixer Tools -->
<svg fill="#7e8492" version="1.1" id="Capa_1" xmlns="http://www.w3.org/2000/svg" xmlns:xlink="http://www.w3.org/1999/xlink" width="15px" height="15px" viewBox="0 0 405.047 405.047" xml:space="preserve" stroke="#7e8492">
<g id="SVGRepo_bgCarrier" stroke-width="0"/>
<g id="SVGRepo_tracerCarrier" stroke-linecap="round" stroke-linejoin="round"/>
<g id="SVGRepo_iconCarrier"> <g> <path d="M283.897,92.846c-36.582-49.345-73.688-89.267-74.061-89.664C207.944,1.153,205.296,0,202.523,0 c-2.774,0-5.423,1.152-7.314,3.182c-0.371,0.397-37.478,40.319-74.06,89.664c-49.971,67.403-75.308,119.726-75.308,155.513 c0,86.396,70.287,156.688,156.682,156.688c86.396,0,156.683-70.29,156.683-156.688C359.206,212.572,333.868,160.25,283.897,92.846z M218.171,354.342c-8.213,1.941-16.68,2.926-25.162,2.926c-60.294,0-109.347-49.055-109.347-109.35 c0-8.312,2.559-23.373,14.75-47.914c1.225-2.467,4.046-3.691,6.687-2.908c2.639,0.785,4.33,3.357,4.007,6.091 c-0.28,2.361-0.421,4.584-0.421,6.607c0,64.629,45.966,120.77,109.298,133.484c2.607,0.525,4.5,2.795,4.545,5.455 C222.575,351.396,220.761,353.729,218.171,354.342z"/> </g> </g>
</svg>