<svg xmlns="http://www.w3.org/2000/svg" xmlns:xlink="http://www.w3.org/1999/xlink" viewBox="0,0,256,256" width="250px" height="250px" fill-rule="nonzero"><g fill="#020202" fill-rule="nonzero" stroke="none" stroke-width="1" stroke-linecap="butt" stroke-linejoin="miter" stroke-miterlimit="10" stroke-dasharray="" stroke-dashoffset="0" font-family="none" font-weight="none" font-size="none" text-anchor="none" style="mix-blend-mode: normal"><g transform="scale(5.12,5.12)"><path d="M45.125,19.909c0.324,-0.84 0.875,-2.604 0.875,-4.909c0,-7.843 -8.757,-10.823 -11.628,-10.988h-0.001c-1.08,-0.884 -2.532,-2.012 -4.371,-2.012c-0.553,0 -9.447,0 -10,0c-1.839,0 -3.291,1.128 -4.371,2.012h-0.001c-2.871,0.165 -11.628,3.145 -11.628,10.988c0,2.305 0.551,4.069 0.875,4.909c-0.613,1.061 -1.875,3.77 -1.875,8.091c0,0.316 0.146,0.598 0.375,0.781c0.171,0.137 5.09,3.082 5.25,3.146c0.317,0.128 0.692,0.09 0.983,-0.133c0.683,-0.524 1.22,-1.288 1.654,-2.16c-0.145,-0.729 -0.262,-1.561 -0.262,-2.634v-4c0,-0.553 0.448,-1 1,-1c0.552,0 1,0.447 1,1v4c0,0.906 0.097,1.611 0.224,2.245c0.001,0 0.003,0 0.004,0c0.045,0.228 0.095,0.458 0.146,0.69c0.031,0.13 0.062,0.263 0.094,0.391c0.166,0.67 0.33,1.365 0.383,2.169c0.089,0.709 0.149,1.519 0.149,2.505c0,0.027 -0.013,0.05 -0.016,0.077c0.01,0.29 0.016,0.592 0.016,0.923v6c0,2.997 4.629,5.438 5.557,5.896c0.137,0.069 0.29,0.104 0.443,0.104h5h5c0.153,0 0.306,-0.035 0.443,-0.104c0.928,-0.458 5.557,-2.899 5.557,-5.896v-6c0,-0.331 0.006,-0.633 0.016,-0.923c-0.003,-0.027 -0.016,-0.05 -0.016,-0.077c0,-0.986 0.06,-1.796 0.149,-2.505c0.054,-0.804 0.217,-1.499 0.383,-2.169c0.032,-0.128 0.063,-0.26 0.094,-0.391c0.051,-0.232 0.101,-0.462 0.146,-0.69c0.001,0 0.003,0 0.004,0c0.127,-0.634 0.224,-1.339 0.224,-2.245v-4c0,-0.553 0.448,-1 1,-1c0.552,0 1,0.447 1,1v4c0,1.073 -0.117,1.905 -0.262,2.634c0.434,0.872 0.971,1.636 1.654,2.16c0.292,0.223 0.666,0.261 0.983,0.133c0.16,-0.065 5.079,-3.009 5.25,-3.146c0.229,-0.183 0.375,-0.465 0.375,-0.781c0,-4.321 -1.262,-7.03 -1.875,-8.091zM24,24.86c0,3.631 -0.681,7.233 -2.052,10.517c-0.687,1.645 -1.225,2.623 -1.225,2.623c0,0 -0.934,-1.626 -2.926,-4.101c-1.17,-1.454 -1.73,-3.609 -2.04,-4.552c-0.42,-1.287 -0.698,-3.841 -0.756,-6.83c1.274,-1.302 3.265,-4.428 3.265,-9.517c0.48,0 2.641,2.279 4.352,4.506c0.898,1.171 1.382,2.674 1.382,4.224zM34.244,29.344c-0.31,0.944 -0.871,3.101 -2.041,4.555c-1.992,2.475 -2.926,4.101 -2.926,4.101c0,0 -0.539,-0.978 -1.225,-2.623c-1.371,-3.284 -2.052,-6.886 -2.052,-10.517v-3.13c0,-1.55 0.484,-3.053 1.383,-4.224c1.711,-2.227 3.872,-4.506 4.352,-4.506c0,5.089 1.991,8.215 3.265,9.517c-0.059,2.989 -0.336,5.543 -0.756,6.827z"></path></g></g></svg>