<svg xmlns="http://www.w3.org/2000/svg" xmlns:xlink="http://www.w3.org/1999/xlink" viewBox="0,0,256,256" width="250px" height="250px" fill-rule="nonzero"><g fill="#000000" fill-rule="nonzero" stroke="none" stroke-width="1" stroke-linecap="butt" stroke-linejoin="miter" stroke-miterlimit="10" stroke-dasharray="" stroke-dashoffset="0" font-family="none" font-weight="none" font-size="none" text-anchor="none" style="mix-blend-mode: normal"><g transform="scale(5.12,5.12)"><path d="M39.5,11c-7.56,0 -11.177,5.218 -11.476,10.309c-0.775,-0.173 -1.651,-0.309 -2.524,-0.309c-5.373,0 -8.163,2.843 -9.511,5.623c-0.83,-1.349 -1.958,-2.812 -3.602,-4.336c-2.681,-2.484 -3.695,-5.051 -4.077,-6.019c-0.06,-0.169 -0.242,-0.941 -0.296,-1.199c0.106,-0.1 0.341,-0.25 0.504,-0.354c0.001,-0.001 0.003,-0.002 0.004,-0.003c0.536,0.783 1.436,1.288 2.477,1.288c0.734,0 1.682,-0.291 2.173,-0.919c0.49,-0.128 0.947,-0.421 1.255,-0.739c0.209,-0.216 0.366,-0.452 0.469,-0.697c0.271,-0.104 0.525,-0.274 0.75,-0.503c0.369,-0.376 0.619,-0.87 0.714,-1.362c0.122,-0.095 0.229,-0.209 0.32,-0.339c0.507,-0.73 0.291,-1.672 0.213,-1.943c-0.443,-1.533 -1.569,-2.337 -2.994,-3.354c-0.251,-0.18 -0.485,-0.363 -0.715,-0.544c-1.098,-0.861 -2.348,-1.835 -4.499,-1.548c-2.145,0.288 -4.107,1.962 -5.578,3.389c-2.178,2.118 -3.107,4.528 -3.105,8.06c0.001,0.595 0.009,1.387 0.066,2.246l0.035,0.538c0.229,3.55 0.613,9.49 3.608,17.376c2.144,5.643 8.211,10.339 9.826,10.339c0.516,0 1.06,-0.187 1.689,-0.403c0.815,-0.281 1.737,-0.597 2.774,-0.597c0.65,0 1.354,0.147 2.246,0.334c1.416,0.297 3.178,0.666 5.754,0.666c11.001,0 15.002,-10.63 15.81,-13.206c1.94,-0.664 8.19,-3.344 8.19,-10.294c0,-5.715 -3.606,-11.5 -10.5,-11.5zM25.5,23c1.233,0 2.532,0.342 3.363,0.609c4.919,2.453 6.086,8.361 6.086,8.361l-0.001,0.003c-0.392,0.945 -3.124,5.027 -8.948,5.027c-5.096,0 -7.132,-4.211 -7.772,-5.594l-0.511,-1.098l-0.475,-1.29c0.687,-2.369 2.652,-6.018 8.258,-6.018z"></path></g></g></svg>