<svg xmlns="http://www.w3.org/2000/svg" xmlns:xlink="http://www.w3.org/1999/xlink" viewBox="0,0,256,256" width="250px" height="250px" fill-rule="nonzero"><g fill="#f10505" fill-rule="nonzero" stroke="none" stroke-width="1" stroke-linecap="butt" stroke-linejoin="miter" stroke-miterlimit="10" stroke-dasharray="" stroke-dashoffset="0" font-family="none" font-weight="none" font-size="none" text-anchor="none" style="mix-blend-mode: normal"><g transform="scale(5.12,5.12)"><path d="M46,15c0,-7.755 -8.699,-10.725 -11.62,-10.981c-1.081,-0.885 -2.536,-2.019 -4.38,-2.019h-10c-1.844,0 -3.299,1.134 -4.38,2.019c-2.921,0.256 -11.62,3.226 -11.62,10.981c0,2.305 0.551,4.069 0.875,4.909c-0.613,1.061 -1.875,3.77 -1.875,8.091c0,0.352 0.185,0.677 0.485,0.857l5,3c0.351,0.211 0.796,0.187 1.123,-0.063c0.683,-0.524 1.226,-1.281 1.66,-2.151c-0.149,-0.762 -0.268,-1.593 -0.268,-2.643c0,-0.399 0.011,-0.77 0.026,-1.128c0.065,-0.489 0.467,-0.872 0.974,-0.872c0.537,0 0.968,0.426 0.991,0.958c0.006,0.454 0.009,0.817 0.009,1.042c0,1.281 0.195,2.155 0.422,3.166c0.271,1.209 0.578,2.58 0.578,4.834c0,0.027 -0.013,0.05 -0.016,0.077c0.01,0.29 0.016,0.592 0.016,0.923v6c0,2.997 4.629,5.438 5.557,5.896c0.137,0.069 0.29,0.104 0.443,0.104h10c0.153,0 0.306,-0.035 0.443,-0.104c0.928,-0.458 5.557,-2.899 5.557,-5.896v-6c0,-0.331 0.006,-0.633 0.016,-0.923c-0.003,-0.027 -0.016,-0.05 -0.016,-0.077c0,-2.254 0.307,-3.625 0.578,-4.834c0.227,-1.011 0.422,-1.885 0.422,-3.166c0,-0.233 0.004,-0.6 0.009,-1.046c0.025,-0.53 0.455,-0.954 0.991,-0.954c0.507,0 0.909,0.383 0.974,0.872c0.015,0.358 0.026,0.729 0.026,1.128c0,1.05 -0.119,1.881 -0.268,2.642c0.434,0.871 0.977,1.628 1.66,2.151c0.327,0.25 0.772,0.274 1.123,0.063l5,-3c0.3,-0.179 0.485,-0.504 0.485,-0.856c0,-4.321 -1.262,-7.03 -1.875,-8.091c0.324,-0.84 0.875,-2.604 0.875,-4.909zM38,21c0,0 -0.875,4 -6.875,4c-5,0 -6.125,-5 -6.125,-5c0,0 -1.125,5 -6.125,5c-6,0 -6.875,-4 -6.875,-4c0,0 -1,-2 -1,-7c0,-3.531 3.242,-4 5,-4c3.625,0 6,4 8,4h1h1c2,0 4.375,-4 8,-4c1.758,0 5,0.469 5,4c0,5 -1,7 -1,7z"></path></g></g></svg>