<svg xmlns="http://www.w3.org/2000/svg" xmlns:xlink="http://www.w3.org/1999/xlink" viewBox="0,0,256,256" width="250px" height="250px" fill-rule="nonzero"><g fill="#f10505" fill-rule="nonzero" stroke="none" stroke-width="1" stroke-linecap="butt" stroke-linejoin="miter" stroke-miterlimit="10" stroke-dasharray="" stroke-dashoffset="0" font-family="none" font-weight="none" font-size="none" text-anchor="none" style="mix-blend-mode: normal"><g transform="scale(5.12,5.12)"><path d="M41,41c0,-1.501 0.302,-3.012 0.685,-4.924c0.586,-2.93 1.315,-6.577 1.315,-12.076c0,-7.038 -1.471,-12.664 -2.351,-16.025c-0.348,-1.334 -0.649,-2.486 -0.649,-2.975v-2c0,-0.553 -0.447,-1 -1,-1c-0.489,0 -27.509,0 -28,0c-0.553,0 -1,0.447 -1,1v2c0,0.489 -0.301,1.641 -0.649,2.975c-0.88,3.361 -2.351,8.987 -2.351,16.025c0,5.499 0.729,9.146 1.315,12.076c0.383,1.912 0.685,3.423 0.685,4.924c0,0.271 -0.169,0.848 -0.332,1.405c-0.298,1.016 -0.668,2.28 -0.668,3.595v1c0,0.553 0.447,1 1,1c0.553,0 8.839,-0.002 8.984,0c0.105,0.002 0.208,-0.018 0.308,-0.048c0.026,-0.008 0.048,-0.021 0.073,-0.031c0.084,-0.033 0.162,-0.077 0.235,-0.132c0.026,-0.02 0.051,-0.038 0.075,-0.06c0.086,-0.08 0.164,-0.17 0.219,-0.281c0.915,-1.828 1.106,-5.603 1.106,-8.448c0,-1.438 0.629,-3.324 1.356,-5.508c1.178,-3.533 2.644,-7.929 2.644,-13.492v-2h2v2c0,5.563 1.466,9.959 2.644,13.492c0.727,2.184 1.356,4.071 1.356,5.508c0,2.845 0.191,6.62 1.105,8.447c0.176,0.351 0.529,0.553 0.896,0.553c0.15,0 8.446,0 8.999,0c0.553,0 1,-0.447 1,-1v-1c0,-1.315 -0.37,-2.579 -0.668,-3.595c-0.163,-0.557 -0.332,-1.134 -0.332,-1.405zM15,39c-5,0 -6,-9 -6,-14c0,-9 6,-13 6,-13c0.625,5.875 4,15.5 4,22.875c0,2.75 -1.5,4.125 -4,4.125zM35,39c-2.5,0 -4,-1.375 -4,-4.125c0,-7.375 3.375,-17 4,-22.875c0,0 6,4 6,13c0,5 -1,14 -6,14z"></path></g></g></svg>