<svg xmlns="http://www.w3.org/2000/svg" xmlns:xlink="http://www.w3.org/1999/xlink" viewBox="0,0,256,256" width="250px" height="250px" fill-rule="nonzero"><g fill="#020202" fill-rule="nonzero" stroke="none" stroke-width="1" stroke-linecap="butt" stroke-linejoin="miter" stroke-miterlimit="10" stroke-dasharray="" stroke-dashoffset="0" font-family="none" font-weight="none" font-size="none" text-anchor="none" style="mix-blend-mode: normal"><g transform="scale(5.12,5.12)"><path d="M20,2c-1.839,0 -3.29109,1.12772 -4.37109,2.01172c-2.871,0.165 -11.62891,3.14528 -11.62891,10.98828c0,2.305 0.551,4.0682 0.875,4.9082c-0.613,1.061 -1.875,3.7708 -1.875,8.0918c0,0.316 0.146,0.59825 0.375,0.78125c0.171,0.137 5.09,3.08248 5.25,3.14648c0.317,0.128 0.69142,0.09019 0.98242,-0.13281c0.683,-0.524 1.2203,-1.28816 1.6543,-2.16016c-0.145,-0.729 -0.26172,-1.56177 -0.26172,-2.63477v-4c0,-0.553 0.448,-1 1,-1c0.552,0 1,0.447 1,1v4c0,0.906 0.09761,1.61014 0.22461,2.24414h0.00391c0.045,0.228 0.09353,0.45941 0.14453,0.69141c0.031,0.13 0.0637,0.26262 0.0957,0.39063c0.166,0.67 0.32981,1.36397 0.38281,2.16797c0.089,0.709 0.14844,1.51986 0.14844,2.50586c0,0.027 -0.01262,0.04917 -0.01562,0.07617c0.01,0.29 0.01563,0.59283 0.01563,0.92383v6c0,2.997 4.62864,5.43848 5.55664,5.89648c0.137,0.069 0.29036,0.10352 0.44336,0.10352h5h5c0.153,0 0.30636,-0.03452 0.44336,-0.10352c0.928,-0.458 5.55664,-2.89948 5.55664,-5.89648v-6c0,-0.331 0.00563,-0.63383 0.01563,-0.92383c-0.003,-0.027 -0.01562,-0.04917 -0.01562,-0.07617c0,-0.986 0.05944,-1.79686 0.14844,-2.50586c0.054,-0.804 0.21681,-1.49797 0.38281,-2.16797c0.032,-0.128 0.0647,-0.25962 0.0957,-0.39062c0.051,-0.232 0.09953,-0.46341 0.14453,-0.69141h0.00391c0.127,-0.634 0.22461,-1.33814 0.22461,-2.24414v-4c0,-0.553 0.448,-1 1,-1c0.552,0 1,0.447 1,1v4c0,1.073 -0.11672,1.90577 -0.26172,2.63477c0.434,0.872 0.9713,1.63616 1.6543,2.16016c0.292,0.223 0.66542,0.26081 0.98242,0.13281c0.16,-0.065 5.079,-3.00948 5.25,-3.14648c0.229,-0.183 0.375,-0.46525 0.375,-0.78125c0,-4.321 -1.262,-7.0308 -1.875,-8.0918c0.324,-0.84 0.875,-2.6032 0.875,-4.9082c0,-7.843 -8.75791,-10.82328 -11.62891,-10.98828c-1.08,-0.884 -2.53209,-2.01172 -4.37109,-2.01172zM18.98438,23.98633c0.535,-0.003 2.41148,-0.003 4.02148,0c0.551,0.001 0.99414,0.44705 0.99414,0.99805v4.01563h-1c-0.36064,-0.0051 -0.69608,0.18438 -0.87789,0.49587c-0.18181,0.3115 -0.18181,0.69676 0,1.00825c0.18181,0.3115 0.51725,0.50097 0.87789,0.49587h1v10c0,0.552 -0.448,1 -1,1h-1c-1.657,0 -3,-1.343 -3,-3v-2.14453c0.32177,0.08436 0.653,0.14453 1,0.14453c0.36064,0.0051 0.69608,-0.18438 0.87789,-0.49587c0.18181,-0.3115 0.18181,-0.69676 0,-1.00825c-0.18181,-0.3115 -0.51725,-0.50097 -0.87789,-0.49587c-1.11667,0 -2,-0.88333 -2,-2v-1v-1c0.36064,0.0051 0.69608,-0.18438 0.87789,-0.49587c0.18181,-0.3115 0.18181,-0.69676 0,-1.00825c-0.18181,-0.3115 -0.51725,-0.50097 -0.87789,-0.49587c-0.56503,0 -1,-0.43497 -1,-1v-2.01367c0,-1.099 0.88537,-1.993 1.98438,-2zM31.01563,23.98633c1.099,0.007 1.98438,0.9 1.98438,2v2.01367c0,0.56503 -0.43497,1 -1,1c-0.36064,-0.0051 -0.69608,0.18438 -0.87789,0.49587c-0.18181,0.3115 -0.18181,0.69676 0,1.00825c0.18181,0.3115 0.51725,0.50097 0.87789,0.49587v1v1c0,1.11667 -0.88333,2 -2,2c-0.36064,-0.0051 -0.69608,0.18438 -0.87789,0.49587c-0.18181,0.3115 -0.18181,0.69676 0,1.00825c0.18181,0.3115 0.51725,0.50097 0.87789,0.49587c0.347,0 0.67823,-0.06017 1,-0.14453v2.14453c0,1.657 -1.343,3 -3,3h-1c-0.552,0 -1,-0.448 -1,-1v-10h1c0.36064,0.0051 0.69608,-0.18438 0.87789,-0.49587c0.18181,-0.3115 0.18181,-0.69676 0,-1.00825c-0.18181,-0.3115 -0.51725,-0.50097 -0.87789,-0.49587h-1v-4.00977c0,-0.55 0.44219,-0.99605 0.99219,-0.99805c1.61,-0.005 3.48844,-0.00986 4.02344,-0.00586z"></path></g></g></svg>