<svg xmlns="http://www.w3.org/2000/svg" xmlns:xlink="http://www.w3.org/1999/xlink" viewBox="0,0,256,256" width="250px" height="250px" fill-rule="nonzero"><g fill="#020202" fill-rule="nonzero" stroke="none" stroke-width="1" stroke-linecap="butt" stroke-linejoin="miter" stroke-miterlimit="10" stroke-dasharray="" stroke-dashoffset="0" font-family="none" font-weight="none" font-size="none" text-anchor="none" style="mix-blend-mode: normal"><g transform="scale(5.12,5.12)"><path d="M35,6h-20c-1.103,0 -2,-0.897 -2,-2c0,-1.103 0.897,-2 2,-2h20c1.103,0 2,0.897 2,2c0,1.103 -0.897,2 -2,2zM21,45h17l-0.595,0.949c-0.408,1.227 -1.553,2.051 -2.846,2.051h-19.117c-1.294,0 -2.438,-0.824 -2.847,-2.051l-0.595,-0.949h5c0.552,0 1,-0.447 1,-1c0,-0.553 -0.448,-1 -1,-1h-6.912c-0.058,-0.293 -0.088,-0.62 -0.088,-1v-28h7c0.552,0 1,-0.448 1,-1c0,-0.552 -0.448,-1 -1,-1h-6.818c0.356,-1.031 1.187,-2.077 2.056,-3.168c0.211,-0.265 0.436,-0.548 0.652,-0.832h24.221c0.216,0.283 0.44,0.566 0.651,0.831c0.869,1.092 1.7,2.139 2.056,3.169h-18.818c-0.552,0 -1,0.448 -1,1c0,0.552 0.448,1 1,1h19v28c0,0.38 -0.03,0.707 -0.088,1h-18.912c-0.552,0 -1,0.447 -1,1c0,0.553 0.448,1 1,1zM31,27h-5l2,-10l-9,13h5l-2,10z"></path></g></g></svg>