<svg xmlns="http://www.w3.org/2000/svg" xmlns:xlink="http://www.w3.org/1999/xlink" viewBox="0,0,256,256" width="100px" height="100px" fill-rule="nonzero"><g fill="#fcfcfc" fill-rule="nonzero" stroke="none" stroke-width="1" stroke-linecap="butt" stroke-linejoin="miter" stroke-miterlimit="10" stroke-dasharray="" stroke-dashoffset="0" font-family="none" font-weight="none" font-size="none" text-anchor="none" style="mix-blend-mode: normal"><g transform="scale(5.12,5.12)"><path d="M0,14v1v21h8h1h6h2h8.875c2.275,0 4.456,-1.074 5.625,-2.875c1.958,1.805 4.627,2.875 7.5,2.875c6.065,0 11,-4.935 11,-11c0,-6.065 -4.935,-11 -11,-11c-2.873,0 -5.542,1.07 -7.5,2.875c-1.169,-1.801 -3.35,-2.875 -5.625,-2.875h-8.875h-2h-6h-1zM2,16h5v7h3v-7h5v18h-5v-7h-3v7h-5zM17,16h8.875c2.554,0 5,2.071 5,4.625v0.25c1.503,-2.874 4.657,-4.875 8.125,-4.875c4.971,0 9,4.029 9,9c0,4.971 -4.029,9 -9,9c-3.468,0 -6.622,-2.001 -8.125,-4.875v0.25c0,2.554 -2.446,4.625 -5,4.625h-8.875zM39,19c-3.30186,0 -6,2.69814 -6,6c0,3.30186 2.69814,6 6,6c3.30186,0 6,-2.69814 6,-6c0,-3.30186 -2.69814,-6 -6,-6zM22,20v3h2.25c0.828,0 1.5,-0.672 1.5,-1.5c0,-0.828 -0.672,-1.5 -1.5,-1.5zM39,21c2.22098,0 4,1.77902 4,4c0,2.22098 -1.77902,4 -4,4c-2.22098,0 -4,-1.77902 -4,-4c0,-2.22098 1.77902,-4 4,-4zM39,23c-1.10457,0 -2,0.89543 -2,2c0,1.10457 0.89543,2 2,2c1.10457,0 2,-0.89543 2,-2c0,-1.10457 -0.89543,-2 -2,-2zM30.09375,23.75c-0.335,0.41 -0.96875,1 -1.96875,1.25c1,0.25 1.58675,0.672 1.96875,1.25c-0.136,-0.505 -0.117,-1.993 0,-2.5zM22,26.75v3h2.25c0.828,0 1.5,-0.672 1.5,-1.5c0,-0.828 -0.672,-1.5 -1.5,-1.5z"></path></g></g></svg>