<svg xmlns="http://www.w3.org/2000/svg" xmlns:xlink="http://www.w3.org/1999/xlink" viewBox="0,0,256,256" width="250px" height="250px" fill-rule="nonzero"><g fill="#f10505" fill-rule="nonzero" stroke="none" stroke-width="1" stroke-linecap="butt" stroke-linejoin="miter" stroke-miterlimit="10" stroke-dasharray="" stroke-dashoffset="0" font-family="none" font-weight="none" font-size="none" text-anchor="none" style="mix-blend-mode: normal"><g transform="scale(5.12,5.12)"><path d="M36.55859,0c-3.15112,0 -5.46461,0.97238 -6.98047,2.54883c-1.44744,1.5053 -2.10721,3.47837 -2.38281,5.48047l-1.92383,3.3125c-0.00265,0.00519 -0.00525,0.01039 -0.00781,0.01563c-0.46074,0.82976 -0.15835,1.94656 0.68359,2.41406c0.00775,0.00466 0.01556,0.00922 0.02344,0.01367l1.0293,0.5332l0.00781,1.6875c0.0013,1.12269 0.37253,2.17521 1.09961,2.93164c0.72837,0.75778 1.82132,1.16786 2.99414,1.05859l-0.09375,0.00391c0.28412,0 0.53526,0.11177 0.71484,0.29297c-1.47075,0.29173 -2.8064,0.87645 -3.82227,1.61523c-3.2222,-1.61313 -6.46964,-0.55808 -8.40039,1.61133c-0.31188,-0.4245 -0.31682,-0.61645 -1.00195,-1.14062c-2.29569,-1.75403 -4.64787,-1.55342 -6.25,-0.69336c-0.2323,0.12471 -0.35898,0.29332 -0.56641,0.43555c0.13459,-1.0717 0.20183,-2.26058 -0.03516,-3.63477c-0.37997,-2.20254 0.07222,-3.89095 0.24414,-4.49805v-0.00195c-0.03278,0.11558 0.04727,-0.09479 0.10547,-0.24219c0.10975,0.50839 0.33069,1.00493 0.76563,1.33789c0.26143,0.19999 0.51732,0.33095 0.9043,0.42578c0.18378,0.04504 0.40234,0.0711 0.66601,0.03711c0.26957,0.10099 0.54293,0.12184 0.81641,0.11328c0.24484,-0.0077 0.50542,-0.06064 0.77539,-0.19336c0.29929,0.04945 0.60226,0.04216 0.83594,-0.0293c0.19987,-0.06112 0.30134,-0.29933 0.47266,-0.4043c0.08183,0.0045 0.15373,0.06393 0.23242,0.05273c0.32694,-0.04652 0.57413,-0.19815 0.74414,-0.34375c0.34003,-0.29119 0.46667,-0.56685 0.56445,-0.81641c0.00065,-0.0013 0.0013,-0.0026 0.00195,-0.00391c0.40304,-1.03917 0.11894,-2.00186 -0.20898,-3.06836c-0.13869,-0.45116 -0.2202,-0.97986 -0.47461,-1.58008c-0.25441,-0.60022 -0.74319,-1.24099 -1.50781,-1.67773c-1.45239,-0.83113 -3.13885,-0.62467 -4.31836,-0.48437c-1.82955,0.21729 -3.44617,1.09473 -4.89453,2.99414c-0.00065,0.00065 -0.0013,0.0013 -0.00195,0.00195c-0.26581,0.34959 -0.55155,0.73589 -0.83984,1.16992c-1.14374,1.72355 -3.45597,5.12524 -5.07227,10.54883c-0.58474,1.96317 -0.50988,4.05417 -0.24219,5.73828c0.13385,0.84206 0.31863,1.57919 0.51563,2.16406c0.0985,0.29244 0.19847,0.54537 0.31055,0.76953c0.11208,0.22416 0.17026,0.41428 0.50977,0.67383c0.52211,0.39933 0.9389,0.43949 1.37891,0.5918c0.44001,0.15231 0.87305,0.33332 1.24219,0.61523c0.71472,0.54593 1.50905,1.77758 3.58789,3.53516c3.13239,2.64955 6.76612,2.34642 9.4043,1.39258c1.18167,-0.42724 2.16857,-0.97478 2.93945,-1.45703c0.32734,3.30996 1.46552,5.13983 1.9668,6.49805c0.01251,0.03396 0.02685,0.06721 0.04297,0.09961c0.36499,0.7332 0.68369,1.34282 0.95508,1.89648c0.02182,0.05977 0.04929,0.11732 0.08203,0.17188c0.69415,1.44363 1.03135,2.52363 0.86133,4.39648c-0.02525,0.2804 0.06884,0.55845 0.25918,0.76589c0.19034,0.20744 0.45929,0.32505 0.74082,0.32395c0.01172,0.00021 0.02344,0.00021 0.03516,0h21.95313v-27.60156c0.01367,-0.39139 -0.20236,-0.75474 -0.55273,-0.92969c-1.29224,-0.64793 -2.935,-1.12136 -4.42578,-1.30859l0.02148,-1.33789c0.00069,-0.0052 0.00134,-0.01041 0.00195,-0.01562c0,-1.42251 0.47795,-2.8362 1.30078,-4.0332c1.03865,-1.51098 1.65234,-3.35544 1.65234,-5.33398c0,-2.40598 -0.68696,-4.76521 -2.25391,-6.54297c-1.56699,-1.77776 -4.00587,-2.89648 -7.18555,-2.89648zM36.55859,2c2.72733,0 4.50975,0.88476 5.68555,2.21875c1.1758,1.33399 1.75391,3.19568 1.75391,5.2207c0,1.56545 -0.48344,3.01215 -1.30078,4.20117c-1.03317,1.503 -1.65234,3.29852 -1.65234,5.16602l-0.03711,2.17773c-0.00416,0.26791 0.09936,0.52628 0.28734,0.7172c0.18799,0.19092 0.44472,0.29843 0.71266,0.29843c0.26155,0 0.5961,0.03847 0.96875,0.10547c-0.03052,0.25194 -0.17013,1.25593 -0.83203,2.39063c-0.74968,1.28517 -1.97005,2.50391 -4.63672,2.50391c-2.66667,0 -3.88703,-1.21873 -4.63672,-2.50391c-0.64742,-1.10986 -0.79022,-2.07525 -0.82617,-2.35937c0.34194,-0.08201 0.67141,-0.13672 0.96289,-0.13672c0.55226,-0.00006 0.99994,-0.44774 1,-1c0,-1.64497 -1.35503,-3 -3,-3c-0.03064,-0.0001 -0.06127,0.0012 -0.0918,0.00391c-0.64117,0.05974 -1.04906,-0.12215 -1.36719,-0.45312c-0.31813,-0.33097 -0.54102,-0.86172 -0.54102,-1.55078c0.00001,-0.00195 0.00001,-0.00391 0,-0.00586l-0.01172,-2.28906c-0.00174,-0.37156 -0.20933,-0.71153 -0.53906,-0.88281l-1.33008,-0.69141l1.85742,-3.20312c0.06881,-0.1181 0.11268,-0.24905 0.12891,-0.38477c0.21572,-1.82388 0.79535,-3.45407 1.90625,-4.60937c1.1109,-1.1553 2.78318,-1.93359 5.53906,-1.93359zM13.35547,9.02539c0.87293,-0.03784 1.75812,0.03103 2.23633,0.30469c0.41538,0.23726 0.52711,0.41142 0.6582,0.7207c0.13109,0.30928 0.21899,0.78584 0.4043,1.38867c0.29273,0.95205 0.3282,1.25535 0.23242,1.59766c-0.26256,0.04265 -0.49732,0.18814 -0.65234,0.4043c-0.39312,-0.22643 -0.8894,-0.15988 -1.20898,0.16211c-0.29183,-0.20162 -0.66862,-0.23357 -0.99024,-0.08399c-0.02248,-0.01078 -0.07433,-0.03743 -0.05859,-0.02539c-0.15195,-0.11632 -0.16504,-0.21511 -0.04883,-0.36719c0.26961,-0.35231 0.2749,-0.84012 0.013,-1.19819c-0.2619,-0.35808 -0.72838,-0.50083 -1.14581,-0.35063c0.02774,-0.01 -0.19994,0.005 -0.57617,-0.02148c-0.18812,-0.01325 -0.41487,-0.03086 -0.70898,0.02539c-0.29412,0.05624 -0.68772,0.2363 -0.93945,0.56445c0,0.00065 0,0.0013 0,0.00195c-0.18796,0.2458 -0.1456,0.235 -0.19336,0.33203c-0.04775,0.09703 -0.09921,0.2073 -0.15039,0.32031c-0.10236,0.22603 -0.16806,0.31659 -0.25977,0.63867c0,0.00065 0,0.0013 0,0.00195c-0.18631,0.65779 -0.74683,2.74256 -0.29102,5.38477c0.43649,2.53109 -0.15126,4.38642 -0.57031,5.90625c-0.12848,0.46221 0.08934,0.95055 0.51909,1.16375c0.42975,0.21321 0.95037,0.09122 1.24067,-0.29071c0.36237,-0.47441 1.21996,-1.56226 2.33008,-2.1582c1.11013,-0.59594 2.31058,-0.83844 4.08789,0.51953c0.95448,0.73024 1.33789,1.48828 1.33789,1.48828c0.15621,0.30601 0.45855,0.51041 0.80073,0.54134c0.34218,0.03093 0.67627,-0.11595 0.88482,-0.38899c0,0 0.13591,-0.17712 0.38281,-0.5c0,-0.00065 0,-0.0013 0,-0.00195c1.41015,-1.8453 3.7905,-2.88849 6.45508,-1.44336c0.43833,1.74572 2.60698,11.53398 -1.9707,18.4375c-0.08706,-0.17276 -0.16189,-0.32325 -0.25195,-0.50391c-0.7356,-1.96115 -1.91406,-3.52093 -1.91406,-7.5957c0.00002,-0.00391 0.00002,-0.00781 0,-0.01172c-0.00008,-0.01955 -0.00073,-0.03909 -0.00195,-0.05859c-0.0009,-0.01631 -0.00221,-0.03259 -0.00391,-0.04883c-0.00061,-0.00521 -0.00126,-0.01042 -0.00195,-0.01562c-0.00127,-0.00457 -0.00257,-0.00912 -0.00391,-0.01367c-0.06808,-0.50057 -0.49877,-0.87177 -1.00391,-0.86523c-0.27037,0.00413 -0.52754,0.11757 -0.71289,0.31445c-0.20452,0.16795 -1.6988,1.36519 -3.79492,2.12305c-2.25183,0.81416 -4.92003,1.08539 -7.43164,-1.03906c-0.00065,0 -0.0013,0 -0.00195,0c-1.90711,-1.61243 -2.49879,-2.70563 -3.66406,-3.5957c-0.63386,-0.48408 -1.293,-0.73957 -1.80273,-0.91602c-0.46844,-0.16215 -0.76041,-0.29364 -0.75195,-0.26953l-0.00195,-0.00195c-0.05224,-0.10448 -0.12831,-0.28575 -0.20508,-0.51367c-0.15354,-0.45585 -0.31632,-1.10203 -0.43359,-1.83984c-0.23446,-1.47506 -0.2721,-3.32009 0.18359,-4.85156v-0.00195c1.53365,-5.14519 3.66021,-8.26546 4.82031,-10.01367c0.25318,-0.38117 0.51194,-0.73072 0.76563,-1.06445l0.00195,-0.00195c1.22853,-1.61019 2.11749,-2.05014 3.53711,-2.21875c0.00065,0 0.0013,0 0.00195,0c0.27262,-0.03243 0.56254,-0.0577 0.85352,-0.07031zM16.17578,13.52344c-0.00015,0.00005 0.00401,0.00185 0.00391,0.00195c-0.0096,0.01666 -0.01872,0.03359 -0.02734,0.05078c-0.0012,0.0083 0.02902,-0.05444 0.02344,-0.05273zM11.02344,27.98828c-0.35276,-0.00765 -0.68345,0.17116 -0.8702,0.47053c-0.18675,0.29937 -0.20194,0.67499 -0.03996,0.98846c0,0 0.36717,0.71209 1.14453,1.33398c0.77736,0.62189 2.02778,1.21875 3.75,1.21875c1.72222,0 2.97264,-0.59686 3.75,-1.21875c0.77736,-0.62189 1.14453,-1.33398 1.14453,-1.33398c0.24702,-0.49404 0.04677,-1.09478 -0.44727,-1.3418c-0.49404,-0.24702 -1.09478,-0.04677 -1.3418,0.44727c0,0 -0.13283,0.28791 -0.60547,0.66602c-0.47264,0.37811 -1.22222,0.78125 -2.5,0.78125c-1.27778,0 -2.02736,-0.40314 -2.5,-0.78125c-0.47264,-0.37811 -0.60547,-0.66602 -0.60547,-0.66602c-0.16363,-0.33835 -0.50315,-0.5564 -0.87891,-0.56445z"></path></g></g></svg>