<!DOCTYPE svg PUBLIC "-//W3C//DTD SVG 1.1//EN" "http://www.w3.org/Graphics/SVG/1.1/DTD/svg11.dtd">
<!-- Uploaded to: SVG Repo, www.svgrepo.com, Transformed by: SVG Repo Mixer Tools -->
<svg version="1.1" id="_x36_" xmlns="http://www.w3.org/2000/svg" xmlns:xlink="http://www.w3.org/1999/xlink" viewBox="0 0 512 512" xml:space="preserve" width="18px" height="18px" fill="#000000">
<g id="SVGRepo_bgCarrier" stroke-width="0"/>
<g id="SVGRepo_tracerCarrier" stroke-linecap="round" stroke-linejoin="round"/>
<g id="SVGRepo_iconCarrier"> <g> <g> <circle style="fill:#536057;" cx="53.337" cy="140.889" r="43.653"/> <polygon style="fill:#EDE8D0;" points="512,192.862 512,422.467 470.122,464.345 51.505,464.345 9.707,422.467 9.707,192.862 "/> <g> <polygon style="fill:#F0E057;" points="111.528,144.713 87.261,192.881 155.473,192.881 179.74,144.713 "/> <polygon style="fill:#3F3F3F;" points="453.572,192.881 511.945,192.881 511.945,144.713 477.839,144.713 "/> <polygon style="fill:#6EB9D2;" points="233.632,144.713 209.365,192.881 277.577,192.881 301.844,144.713 "/> <polygon style="fill:#CEDEF2;" points="355.735,144.713 331.469,192.881 399.68,192.881 423.947,144.713 "/> <polygon style="fill:#3F3F3F;" points="57.602,144.726 38.829,182.031 33.374,192.862 8.665,192.862 8.665,144.726 "/> <polygon style="fill:#616C7D;" points="423.947,144.713 399.68,192.881 453.572,192.881 477.839,144.713 "/> <polygon style="fill:#C03555;" points="301.844,144.713 277.577,192.881 331.469,192.881 355.735,144.713 "/> <polygon style="fill:#448538;" points="179.74,144.713 155.473,192.881 209.365,192.881 233.632,144.713 "/> <polygon style="fill:#616C7D;" points="57.636,144.713 33.369,192.881 87.261,192.881 111.528,144.713 "/> </g> <g> <polygon style="fill:#CEDEF2;" points="416.371,64.581 349.382,77.738 316.33,35.138 383.238,21.982 "/> <polygon style="fill:#3F3F3F;" points="56.96,135.34 9.868,144.646 9.306,144.726 0,97.473 23.827,92.74 27.838,91.938 34.337,101.645 "/> <polygon style="fill:#6EB9D2;" points="296.514,88.168 256,96.11 229.606,101.324 196.472,58.805 256,47.011 263.461,45.568 "/> <polygon style="fill:#F0E057;" points="176.737,111.754 109.829,124.911 76.696,82.391 143.604,69.154 "/> <polygon style="fill:#3F3F3F;" points="504.138,47.252 469.4,54.152 468.678,53.43 425.998,13.558 436.106,11.552 489.296,1.042 494.832,0 496.436,8.182 "/> <polygon style="fill:#616C7D;" points="109.829,124.911 94.987,127.879 56.96,135.34 31.77,103.008 23.827,92.74 27.838,91.938 76.696,82.391 "/> <polygon style="fill:#448538;" points="229.606,101.324 176.737,111.754 143.604,69.154 196.472,58.805 "/> <polygon style="fill:#C03555;" points="349.382,77.738 296.514,88.168 263.461,45.568 316.33,35.138 "/> <polygon style="fill:#616C7D;" points="469.24,54.152 416.371,64.581 383.238,21.982 425.998,13.558 436.106,11.552 468.678,53.43 468.839,53.59 "/> </g> <circle style="fill:#F0E1B7;" cx="23.882" cy="117.874" r="6.125"/> <circle style="fill:#F0E1B7;" cx="23.882" cy="169.717" r="6.125"/> <rect x="83.144" y="235.66" style="fill:#404441;" width="355.384" height="71.782"/> <g> <path style="fill:#E3354E;" d="M118.012,253.192l-8.825,6.337v7.061l8.825-6.338v28.881h7.862v-35.941H118.012z"/> <path style="fill:#E3354E;" d="M138.87,253.192v11.553h7.541v-5.616h11.312l-13.96,30.004h8.584l13.96-30.004v-5.937H138.87z"/> <path style="fill:#E3354E;" d="M172.806,281.671v7.461h9.065v-7.461H172.806z"/> <path style="fill:#E3354E;" d="M200.965,253.192l-8.744,6.337v7.061l8.744-6.338v28.881h7.862v-35.941H200.965z"/> <path style="fill:#E3354E;" d="M244.046,271.563c0.722-0.721,1.364-1.363,1.926-2.006c0.562-0.641,1.043-1.283,1.444-1.925 c0.401-0.641,0.722-1.283,0.882-1.925c0.241-0.722,0.321-1.524,0.321-2.406c0-1.605-0.321-3.049-0.963-4.333 c-0.641-1.284-1.524-2.406-2.727-3.29c-1.123-0.881-2.487-1.604-4.092-2.086c-1.685-0.481-3.369-0.722-5.295-0.722 c-1.845,0-3.61,0.241-5.214,0.722c-1.524,0.482-2.968,1.124-4.172,2.086c-1.123,0.883-2.086,2.006-2.727,3.29 c-0.722,1.284-1.043,2.727-1.043,4.413h7.862c0-0.882,0.161-1.605,0.481-2.166c0.321-0.641,0.722-1.123,1.203-1.445 c0.481-0.321,1.043-0.641,1.685-0.722c0.642-0.161,1.284-0.24,1.925-0.24c1.685,0,2.969,0.401,3.851,1.203 c0.882,0.803,1.364,1.925,1.364,3.29c0,0.802-0.161,1.525-0.562,2.165c-0.321,0.642-0.882,1.365-1.684,2.166l-16.125,15.564 v5.937h26.233v-5.937h-16.687L244.046,271.563z"/> <path style="fill:#E3354E;" d="M255.84,281.671v7.461h8.985v-7.461H255.84z"/> <path style="fill:#E3354E;" d="M297.396,259.048c-0.642-1.364-1.605-2.487-2.808-3.37c-1.203-0.962-2.567-1.604-4.172-2.086 c-1.605-0.481-3.289-0.722-4.974-0.722c-1.845,0-3.45,0.241-5.054,0.722c-1.605,0.482-2.968,1.124-4.172,2.086 c-1.203,0.883-2.166,2.006-2.888,3.37c-0.722,1.284-1.043,2.808-1.043,4.572v15.083c0,1.685,0.321,3.208,1.043,4.573 c0.722,1.364,1.685,2.486,2.888,3.37c1.203,0.881,2.567,1.604,4.172,2.086c1.605,0.401,3.209,0.642,5.054,0.642 c1.685,0,3.369-0.241,4.974-0.642c1.605-0.482,2.968-1.204,4.172-2.086c1.203-0.883,2.166-2.006,2.808-3.37 c0.722-1.364,1.123-2.888,1.123-4.573V263.62C298.52,261.856,298.119,260.332,297.396,259.048z M290.658,278.704 c0,1.444-0.482,2.647-1.445,3.529c-0.963,0.882-2.246,1.283-3.77,1.283c-1.605,0-2.888-0.401-3.851-1.283 c-0.963-0.882-1.444-2.086-1.444-3.529v-15.003c0-1.524,0.482-2.727,1.444-3.61c0.963-0.882,2.246-1.283,3.851-1.283 c1.524,0,2.808,0.401,3.77,1.283c0.963,0.882,1.445,2.086,1.445,3.61V278.704z"/> <path style="fill:#E3354E;" d="M316.811,253.192l-8.744,6.337v7.061l8.744-6.338v28.881h7.862v-35.941H316.811z"/> <path style="fill:#E3354E;" d="M338.793,281.671v7.461h9.065v-7.461H338.793z"/> <path style="fill:#E3354E;" d="M380.43,259.048c-0.722-1.364-1.684-2.487-2.888-3.37c-1.123-0.962-2.567-1.604-4.171-2.086 c-1.605-0.481-3.209-0.722-4.974-0.722c-1.765,0-3.45,0.241-5.054,0.722c-1.524,0.482-2.969,1.124-4.172,2.086 c-1.204,0.883-2.166,2.006-2.808,3.37c-0.722,1.284-1.123,2.808-1.123,4.572v15.083c0,1.685,0.401,3.208,1.123,4.573 c0.642,1.364,1.605,2.486,2.808,3.37c1.203,0.881,2.648,1.604,4.172,2.086c1.604,0.401,3.289,0.642,5.054,0.642 c1.765,0,3.37-0.241,4.974-0.642c1.604-0.482,3.048-1.204,4.171-2.086c1.204-0.883,2.166-2.006,2.888-3.37 c0.722-1.364,1.043-2.888,1.043-4.573V263.62C381.473,261.856,381.152,260.332,380.43,259.048z M373.611,278.704 c0,1.444-0.481,2.647-1.444,3.529c-0.963,0.882-2.166,1.283-3.771,1.283c-1.604,0-2.808-0.401-3.851-1.283 c-0.963-0.882-1.444-2.086-1.444-3.529v-15.003c0-1.524,0.481-2.727,1.444-3.61c1.043-0.882,2.247-1.283,3.851-1.283 c1.605,0,2.808,0.401,3.771,1.283c0.963,0.882,1.444,2.086,1.444,3.61V278.704z"/> <path style="fill:#E3354E;" d="M413.162,273.488c-1.123-1.283-2.407-2.246-3.931-2.967c1.364-0.642,2.567-1.525,3.53-2.648 c0.882-1.203,1.364-2.727,1.364-4.733c0-1.444-0.321-2.888-0.963-4.092c-0.642-1.284-1.524-2.406-2.727-3.29 c-1.123-0.882-2.567-1.604-4.172-2.086c-1.605-0.561-3.369-0.802-5.215-0.802c-1.845,0-3.53,0.241-5.134,0.722 c-1.605,0.482-2.968,1.124-4.172,2.006c-1.123,0.883-2.086,1.925-2.808,3.21c-0.722,1.283-1.043,2.727-1.123,4.332h7.862 c0.08-1.364,0.642-2.486,1.605-3.209c1.043-0.802,2.246-1.122,3.77-1.122c1.364,0,2.648,0.401,3.691,1.122 c1.043,0.803,1.524,1.925,1.524,3.45c0,1.284-0.401,2.326-1.204,3.209c-0.882,0.881-2.246,1.283-4.252,1.283h-1.123v5.696h1.123 c2.006,0,3.45,0.482,4.493,1.364c1.043,0.882,1.605,2.086,1.605,3.611c0,1.604-0.562,2.808-1.605,3.69 c-1.123,0.882-2.487,1.283-4.252,1.283c-0.722,0-1.444-0.079-2.166-0.32c-0.722-0.161-1.364-0.401-1.845-0.802 c-0.562-0.401-0.963-0.883-1.283-1.524c-0.321-0.562-0.481-1.285-0.562-2.086h-7.862c0.08,1.925,0.481,3.53,1.203,4.812 c0.803,1.364,1.846,2.487,3.049,3.29c1.284,0.881,2.728,1.524,4.412,1.925c1.605,0.401,3.289,0.561,5.054,0.561 c1.926,0,3.691-0.161,5.295-0.642c1.684-0.401,3.129-1.044,4.332-2.006c1.284-0.883,2.246-2.006,2.968-3.289 c0.722-1.364,1.123-2.968,1.123-4.733C414.767,276.538,414.205,274.773,413.162,273.488z"/> </g> <line style="fill:none;stroke:#616C7D;stroke-width:0.8134;stroke-miterlimit:10;" x1="35.712" y1="342.8" x2="485.96" y2="342.8"/> <g> <line style="fill:none;stroke:#616C7D;stroke-width:0.8134;stroke-miterlimit:10;" x1="177.814" y1="354.219" x2="177.814" y2="429.26"/> <line style="fill:none;stroke:#616C7D;stroke-width:0.8134;stroke-miterlimit:10;" x1="343.858" y1="354.219" x2="343.858" y2="429.26"/> </g> <polygon style="fill:#BFC6D0;" points="420.038,370.381 425.339,386.698 442.496,386.698 428.616,396.782 433.918,413.098 420.038,403.014 406.158,413.098 411.46,396.782 397.58,386.698 414.736,386.698 "/> </g> <g style="opacity:0.1;"> <polygon style="fill:#040000;" points="256,192.884 256,464.319 470.098,464.319 511.992,422.435 511.992,192.884 "/> <polygon style="fill:#040000;" points="469.4,54.152 468.839,53.59 469.24,54.152 416.371,64.581 349.382,77.738 296.514,88.168 256,96.11 256,47.011 263.461,45.568 316.33,35.138 383.238,21.982 425.998,13.558 436.106,11.552 489.296,1.042 494.832,0 496.436,8.182 504.138,47.252 "/> <polygon style="fill:#040000;" points="331.469,192.881 399.68,192.881 453.572,192.881 511.945,192.881 511.945,144.713 477.839,144.713 423.947,144.713 355.736,144.713 301.844,144.713 256,144.713 256,192.881 277.577,192.881 "/> </g> </g> </g>
</svg>